/* XPM */
static char * pomfit_xpm[] = {
"32 32 140 2",
"  	c None",
". 	c #FFFFFF",
"+ 	c #BABABA",
"@ 	c #494949",
"# 	c #191919",
"$ 	c #9B9B9B",
"% 	c #A9A9A9",
"& 	c #C8C8C8",
"* 	c #141414",
"= 	c #555555",
"- 	c #CDCDCD",
"; 	c #262626",
"> 	c #C2C2C2",
", 	c #020202",
"' 	c #737373",
") 	c #353535",
"! 	c #DADADA",
"~ 	c #949494",
"{ 	c #C4C4C4",
"] 	c #676767",
"^ 	c #3B3B3B",
"/ 	c #0C0C0C",
"( 	c #777777",
"_ 	c #787878",
": 	c #C0C0C0",
"< 	c #A2A2A2",
"[ 	c #757575",
"} 	c #E2E2E2",
"| 	c #070707",
"1 	c #F8F8F8",
"2 	c #343434",
"3 	c #D1D1D1",
"4 	c #000000",
"5 	c #898989",
"6 	c #EAEAEA",
"7 	c #ADADAD",
"8 	c #2C2C2C",
"9 	c #A7A7A7",
"0 	c #EBEBEB",
"a 	c #E6E6E6",
"b 	c #090909",
"c 	c #FEFEFE",
"d 	c #616161",
"e 	c #BEBEBE",
"f 	c #9F9F9F",
"g 	c #848484",
"h 	c #F4F4F4",
"i 	c #101010",
"j 	c #383838",
"k 	c #696969",
"l 	c #ABABAB",
"m 	c #ECECEC",
"n 	c #C1C1C1",
"o 	c #0B0B0B",
"p 	c #E8E8E8",
"q 	c #CACACA",
"r 	c #D4D4D4",
"s 	c #606060",
"t 	c #0E0E0E",
"u 	c #888888",
"v 	c #F3F3F3",
"w 	c #B8B8B8",
"x 	c #808080",
"y 	c #0A0A0A",
"z 	c #8A8A8A",
"A 	c #040404",
"B 	c #B1B1B1",
"C 	c #7F7F7F",
"D 	c #535353",
"E 	c #727272",
"F 	c #7D7D7D",
"G 	c #242424",
"H 	c #D0D0D0",
"I 	c #313131",
"J 	c #E3E3E3",
"K 	c #979797",
"L 	c #858585",
"M 	c #969696",
"N 	c #7C7C7C",
"O 	c #2D2D2D",
"P 	c #838383",
"Q 	c #080808",
"R 	c #F5F5F5",
"S 	c #5D5D5D",
"T 	c #BFBFBF",
"U 	c #D7D7D7",
"V 	c #3E3E3E",
"W 	c #A4A4A4",
"X 	c #A8A8A8",
"Y 	c #DBDBDB",
"Z 	c #1E1E1E",
"` 	c #A6A6A6",
" .	c #8C8C8C",
"..	c #E1E1E1",
"+.	c #E7E7E7",
"@.	c #F2F2F2",
"#.	c #F7F7F7",
"$.	c #919191",
"%.	c #3C3C3C",
"&.	c #292929",
"*.	c #565656",
"=.	c #252525",
"-.	c #E9E9E9",
";.	c #EFEFEF",
">.	c #646464",
",.	c #717171",
"'.	c #212121",
").	c #BCBCBC",
"!.	c #4F4F4F",
"~.	c #B6B6B6",
"{.	c #D5D5D5",
"].	c #9C9C9C",
"^.	c #AAAAAA",
"/.	c #323232",
"(.	c #878787",
"_.	c #C5C5C5",
":.	c #3A3A3A",
"<.	c #EEEEEE",
"[.	c #E5E5E5",
"}.	c #5C5C5C",
"|.	c #202020",
"1.	c #8F8F8F",
"2.	c #767676",
"3.	c #B9B9B9",
"4.	c #525252",
"5.	c #B7B7B7",
"6.	c #BBBBBB",
"7.	c #9A9A9A",
"8.	c #939393",
"9.	c #FBFBFB",
"0.	c #B4B4B4",
"a.	c #545454",
"b.	c #9E9E9E",
"c.	c #030303",
"d.	c #8B8B8B",
"e.	c #454545",
"f.	c #FCFCFC",
"g.	c #CECECE",
"h.	c #171717",
"i.	c #1B1B1B",
". . . + @ # $ . . . . . . . % . . . . . . . . . . . . . . . . . ",
". & * = - . ; . > * , ' . . ) ! . . = ~ { ] ^ / ( . . . . . . . ",
". _ : . . < [ } | 1 . 2 3 . 4 5 . 6 4 7 8 9 0 . . . . . . . . . ",
". _ & . a b c d e . . f g h i j . k ; l 8 m . . . . . . . . . . ",
". ( n 5 o p . 8 0 . . q = r s t . | u l 8 v . w 1 . . . . . . . ",
". x y z . . . A . . . B ( 7 C D ' E F l ) G y s 0 . . . . . . . ",
". ( H . . . . I J . . 5 K L f M 4 6 N l O a . . . . . . . . . . ",
". _ & . . . . P x . . Q R S T U V . F W 8 m . . . . . . . . . . ",
". X Y . . . . . j Z b ` .  .... . . J +._ @.. . . . . . . . . . ",
". . . . . . . . . #.. . . . . . . . . . . . . . . . . . . . . . ",
". . . . . . . . . . . . . . . . . . . . . . . . . . . . . . . . ",
". . . . . . . . . . . . . . . . . @.$.%.&.g . . . . . . . . . . ",
". . . . . . . . . . . . . . . . *.=.9 -.;.>.,.. . . . . . . . . ",
". . . . . . . . . . . . . . . * l . . . . . '.X ).. . . . . . . ",
". . . . . . . . . . . . . . !.~.. . . . . . {.].s , ^.. . . . . ",
". . . . . . . . . . . . . . %.. . . . . . . . . . c /.(.. . . . ",
". . . . . . . . . . . . . _.% . . . . . . . . . . . . :.l . . . ",
". . . . . . . . . . . . . w <.. . . . . . . . . . . . . t 1 . . ",
". . . . . . . . . . . . . [.. . . . . . . . . . . . . . ).}.. . ",
". . . . . . . . . . . . . . . . . . . . . . . . . . . . . |.#.. ",
". . . . . . . . . . . . . . . . . . . . . . . . . . . . . 1.$ . ",
". . . . . . . . . . . . . . . . . . . . . . . . . . . . . q 2.. ",
". . . . . . 1 _.M ~ F N < _.v . . . . . . . . . . . . . . 3.( . ",
". . . . . . . . . . . . . . . . . . . . . . . . . . . . . 4.3.. ",
". . . . . . . . . . . . . . . . . . . . . . . . . . . . 5.t . . ",
". . . . . . . . ;.6.: { 6.7.8.6.c . . . . . . . . . . $./.#.. . ",
". . . . . . . . . {.5.7.W & 9.. . . . . . . . . . . . V h . . . ",
". . . . . . . . . . . . . . . . . . . . . . . . . . . b . . . . ",
". . . . . . . . . . . . . . . . . m . . . . . . . . 0.a.. . . . ",
". . . . . . . . . . . . . . . . . q b.. . . . . . 6 c.0 . . . . ",
". . . . . . . . . . . . . . . . . . d.e.a . . f.1.4 g.. . . . . ",
". . . . . . . . . . . . . . . . . . . : ) h.* i._ #.. . . . . . "};
